<svg width="40" height="40" viewBox="0 0 40 40" fill="none" xmlns="http://www.w3.org/2000/svg">
<g clip-path="url(#clip0_2117_101)">
<path fill-rule="evenodd" clip-rule="evenodd" d="M29.985 10.0167L8.99832 17.605L15.99 21.6517L22.155 15.485C22.4677 15.1725 22.8918 14.997 23.3339 14.9972C23.776 14.9973 24.2 15.1731 24.5125 15.4858C24.825 15.7986 25.0005 16.2226 25.0003 16.6647C25.0002 17.1069 24.8244 17.5308 24.5117 17.8433L18.345 24.01L22.395 31L29.985 10.0167ZM30.5233 6.27665C32.515 5.55499 34.445 7.48499 33.7233 9.47665L24.92 33.8183C24.1967 35.815 21.47 36.0583 20.405 34.22L15.0433 24.9567L5.77999 19.595C3.94166 18.53 4.18332 15.8033 6.18166 15.08L30.5233 6.27665Z" fill="#FAFAFA"/>
</g>
<defs>
<clipPath id="clip0_2117_101">
<rect width="40" height="40" fill="white"/>
</clipPath>
</defs>
</svg>
